<svg width="354" height="92" viewBox="0 0 354 92" fill="none" xmlns="http://www.w3.org/2000/svg">
<path d="M352.351 80.8725L175.982 14.7087L3.8924 91.5226L3.0941 89.0363L175.892 11.7823L176.26 11.9803L353.086 78.3393L352.351 80.8725Z" fill="#373737"/>
<path d="M184.104 14.565C184.263 19.7907 180.783 24.0816 176.273 24.2194C171.762 24.3572 168.026 20.287 167.867 15.0613C167.707 9.83558 171.187 5.54475 175.698 5.4069C180.208 5.26906 183.944 9.33933 184.104 14.565Z" fill="#373737"/>
<path d="M175.889 11.6777C178.054 11.6115 180.003 13.3304 180.614 15.6131C180.692 15.1923 180.769 14.7715 180.753 14.249C180.66 11.218 178.512 8.87764 175.896 8.95759C173.28 9.03754 171.279 11.5048 171.372 14.5357C171.385 14.9537 171.401 15.4763 171.594 15.8888C172.062 13.4685 173.815 11.7411 176.07 11.6722L175.889 11.6777Z" fill="#5F5F5F"/>
</svg>
