<svg width="1440" height="775" viewBox="0 0 1440 775" fill="none" xmlns="http://www.w3.org/2000/svg">
<path d="M1440 0H0V775H1440V0Z" fill="#2C3434"/>
<path d="M85 10H32V775H85V10Z" fill="#2F3737"/>
<path d="M216 10H163V775H216V10Z" fill="#2F3737"/>
<path d="M347 10H294V775H347V10Z" fill="#2F3737"/>
<path d="M478 10H425V775H478V10Z" fill="#2F3737"/>
<path d="M556 10H609V775H556V10Z" fill="#2F3737"/>
<path d="M740 10H687V775H740V10Z" fill="#2F3737"/>
<path d="M871 10H818V775H871V10Z" fill="#2F3737"/>
<path d="M1002 10H949V775H1002V10Z" fill="#2F3737"/>
<path d="M1133 10H1080V775H1133V10Z" fill="#2F3737"/>
<path d="M1264 10H1211V775H1264V10Z" fill="#2F3737"/>
<path d="M1395 10H1342V775H1395V10Z" fill="#2F3737"/>
</svg>
